<svg><path data-v-562b0aec="" d="M81.72,12.35c-1.84,0-3.11,1.39-3.11,3.09s1.15,3.09,3.11,3.09,3.1-1.39,3.1-3.09-1.26-3.09-3.1-3.09ZM68.36,9.65c2.85,0,4.6,2.21,4.6,5.38h0c0,2.48-.88,4.38-2.47,5.91l-1.94-1.63c.9-1.01,1.71-2.58,1.71-4.27,0-1.81-.91-2.92-2.24-2.92s-2.27.86-2.27,2.67v2.57h-2.71v-2.57c0-1.81-.94-2.67-2.27-2.67s-2.24,1.11-2.24,2.92v.16c.05,1.64.83,3.14,1.71,4.12l-1.94,1.63c-1.59-1.53-2.47-3.42-2.47-5.9h0s0-.14,0-.14c.05-3.1,1.78-5.24,4.6-5.24,1.99,0,3.4.9,3.96,2.25.57-1.35,1.97-2.25,3.96-2.25ZM152.31,9.65c3.48,0,5.68,2.6,5.68,5.72,0,2.34-.77,4.13-2.16,5.57l-1.95-1.61c1.09-1.4,1.41-2.67,1.41-3.95,0-1.83-1.02-3.27-2.97-3.27s-2.97,1.44-2.97,3.27c0,1.28.31,2.55,1.41,3.95l-1.95,1.61c-1.39-1.44-2.16-3.23-2.16-5.57,0-3.11,2.2-5.72,5.68-5.72ZM124.49,5.33v.12c0,1.21,3.11,1.73,3.11,4.12,0,1.18-.93,2-2.04,2.25,1.9.61,3.08,2.11,3.08,4.27,0,2.87-2.15,4.97-5.7,4.97-2.57,0-4.77-1.44-5.34-3.91l2.44-1.01c.39,1.49,1.5,2.45,2.9,2.45,1.97,0,2.97-1.15,2.97-2.55,0-1.64-1.15-2.68-2.97-2.68h-1.67v-2.45h1.52c1.31,0,2.08-.49,2.08-1.33,0-1.54-3.11-1.58-3.11-4.06v-.18h2.73ZM86.32,5.41v2.45h-6.62c-.99,0-1.33.59-1.33,1.33v2.1c.78-1.19,2.48-1.55,3.64-1.55,3.5,0,5.52,2.52,5.52,5.7s-2.18,5.7-5.81,5.7-6.05-2.43-6.05-6.2v-5.67c0-2.13,1.44-3.86,3.88-3.86h6.78ZM136.74,14.33c-2.26.48-3.15,2.49-3.2,4.38.06,2.17,1.21,4.49,4.27,4.49s4.21-2.32,4.27-4.49c-.05-1.86-.9-3.82-3.07-4.35.07.39.21,1.28.21,1.99v1.19h-2.71v-1.19c0-.72.15-1.65.22-2.02ZM139.23,9.94v.57c0,.42-.05.92-.11,1.33,3.88.56,5.69,3.65,5.69,6.87,0,3.56-2.22,6.96-7,6.96s-7-3.4-7-6.96c0-3.25,1.85-6.37,5.81-6.88-.06-.41-.11-.89-.11-1.31v-.57h2.71ZM100.78,9.94v.12c0,1.49,1.15,1.84,1.15,3.41,0,1.49-.97,2.24-2.37,2.52,2.02.55,3.08,1.93,3.08,4.21,0,3.04-2.2,5.46-6,5.46s-5.98-2.55-5.98-5.68v-10.05h2.71v10.05c0,1.65,1.1,3.2,3.27,3.2s3.27-1.45,3.27-3.05c0-1.78-1.15-2.93-2.97-2.93h-.46v-2.45h1.04c1.04,0,1.67-.55,1.67-1.39,0-1.22-1.15-1.44-1.15-3.26v-.18h2.73ZM110.29,9.65c3.31,0,5.35,1.92,5.35,5.35v5.39c0,3.05-2.1,5.28-5.47,5.28-3.02,0-5.13-1.65-5.47-4.69l2.48-.69c.22,1.93,1.31,2.91,2.85,2.91,2.04,0,2.88-1.26,2.88-2.86v-5.31c0-1.66-.89-2.92-2.62-2.92s-2.64,1.26-2.64,2.92v.97h-2.71v-.99c0-3.42,2.03-5.35,5.35-5.35ZM52.59,9.94v2.38c0,1.67-.69,2.85-1.98,3.5,1.93.71,3.08,2.3,3.08,4.58,0,3.05-2.15,5.28-5.7,5.28-2.57,0-4.77-1.44-5.34-3.91l2.44-1.01c.39,1.49,1.5,2.45,2.9,2.45,1.97,0,2.97-1.26,2.97-2.86,0-1.78-1.15-2.99-2.97-2.99h-1.79v-2.45h1.18c1.69,0,2.48-.99,2.48-2.38v-2.57h2.73Z" class="cls-2"></path></svg>